# xmcd
#
# Track frame offsets:
#	150
#	2675
#	19850
#	46090
#	64205
#	70680
#	91767
#	109685
#	139572
#	150292
#	161137
#	175562
#	183862
#	186617
#	199485
#	201720
#	221800
#	256232
#	277102
#
# Disc length: 3985 seconds
#
# Revision: 0
# Processed by: cddbd v1.5.1PL0 Copyright (c) Steve Scherf et al.
# Submitted via: dBpowerAMP V4.0
#
DISCID=110f8f13
DTITLE=Clint Holmes - A Night To Remember
DYEAR=1900
DGENRE=Club
TTITLE0=Opening
TTITLE1=Take It Uptown
TTITLE2=Change The World
TTITLE3=What Kind of Fool Am I
TTITLE4=Clint Mouth Percussion
TTITLE5=Banana Boat Song (Day O)
TTITLE6=Bailamos
TTITLE7=I Wanna Be (Medley) Respect, Mack the Knife, My Cherie Amour, Sir Duke (You Can Feel It)
TTITLE8=Playground in My Mind
TTITLE9=America Was Waiting (Introduction)
TTITLE10=America Was Waiting
TTITLE11=Summertime
TTITLE12=Green Mercury (Introduction)
TTITLE13=Green Mercury
TTITLE14=Hell to Heaven (Introduction)
TTITLE15=Hell to Heaven
TTITLE16=At the Rendezvous
TTITLE17=My Own Song
TTITLE18=LV
EXTD=
EXTT0=
EXTT1=
EXTT2=
EXTT3=
EXTT4=
EXTT5=
EXTT6=
EXTT7=
EXTT8=
EXTT9=
EXTT10=
EXTT11=
EXTT12=
EXTT13=
EXTT14=
EXTT15=
EXTT16=
EXTT17=
EXTT18=
PLAYORDER=
